<svg version="1.1" id="Layer_1" xmlns="http://www.w3.org/2000/svg" xmlns:xlink="http://www.w3.org/1999/xlink" x="0px" y="0px"
	 width="100%" viewBox="0 0 512 512" enable-background="new 0 0 512 512" xml:space="preserve">
<path fill="#2F2F30" opacity="1.000000" stroke="none" 
	d="
M52.000000,513.000000 
	C35.006836,513.000000 18.013670,513.000000 1.015378,513.000000 
	C1.010252,342.408783 1.010252,171.817566 1.010252,1.113172 
	C171.666611,1.113172 342.333282,1.113172 513.000000,1.113172 
	C513.000000,6.731936 513.000000,12.396259 512.637573,18.542660 
	C510.522766,20.177031 508.460358,21.038925 507.066742,22.527121 
	C494.811615,35.613716 482.721954,48.855095 470.493683,61.967026 
	C450.898743,82.977966 431.255402,103.943863 411.593109,124.891800 
	C400.110962,137.124710 388.462433,149.203781 377.155060,161.595078 
	C375.908722,162.960876 375.324310,166.811218 376.291412,168.010727 
	C382.505188,175.717285 388.161713,184.154205 397.421265,188.613129 
	C395.626038,189.670898 394.123749,190.502899 392.605621,191.343689 
	C391.349213,190.383682 390.227539,189.526642 388.974396,188.373718 
	C371.014893,170.333755 353.186890,152.589676 335.196716,134.547455 
	C325.765350,124.541054 314.649109,117.243202 302.156799,112.961197 
	C282.238434,106.133751 262.198761,107.276672 242.398743,115.642105 
	C241.397568,116.454231 240.705673,117.201813 239.711075,118.147049 
	C239.289825,119.515419 239.171280,120.686127 238.924103,122.165932 
	C237.933350,127.206589 241.641068,128.286713 244.708710,128.779770 
	C250.024628,129.634216 255.476959,129.934723 260.872742,129.941528 
	C276.506104,129.961243 295.503296,146.865143 299.030090,160.731903 
	C299.427460,162.294159 300.865936,163.591644 301.933929,165.432449 
	C302.155334,167.591095 302.264374,169.329208 302.279785,171.453690 
	C302.142670,172.897217 302.099213,173.954391 301.863739,175.218781 
	C301.609802,175.972321 301.547913,176.518631 301.357422,177.466843 
	C300.981689,179.254135 300.734589,180.639557 300.326385,182.279343 
	C295.697479,187.201324 291.332916,191.973648 286.732880,196.507095 
	C282.140533,201.032944 277.312347,205.319534 272.099792,209.602707 
	C250.298843,208.495514 230.402130,213.165268 211.891861,224.196167 
	C207.214661,220.016647 202.745621,216.035370 198.353683,211.970749 
	C188.347565,202.710266 178.379257,193.408936 167.914108,184.043365 
	C166.600052,183.948288 165.767166,183.911560 164.934952,183.923203 
	C154.362350,184.071121 154.335953,184.068054 152.476013,194.270477 
	C143.367813,244.231842 134.252609,294.191956 125.238487,344.170319 
	C124.758835,346.829742 125.177773,349.651215 125.027512,352.811646 
	C124.262459,355.976257 123.011909,358.775665 123.219772,361.462250 
	C123.413269,363.963135 124.664413,366.775360 126.328316,368.685272 
	C129.524887,372.354462 133.846634,375.091583 136.807419,378.908905 
	C145.227371,389.764801 164.093185,389.089081 172.117096,382.244263 
	C178.559586,376.748444 184.544662,370.710114 190.645264,364.821930 
	C195.199432,360.426331 199.695251,355.963531 204.059372,351.380524 
	C206.527359,348.788757 209.080231,348.466064 212.133347,350.057739 
	C215.087250,351.597687 218.099426,353.025421 221.066116,354.541382 
	C235.456375,361.894562 251.074356,364.670898 266.881042,364.740082 
	C280.988922,364.801819 295.054596,362.295074 308.094666,356.315918 
	C312.837921,354.141022 316.454803,355.199005 319.871307,358.433807 
	C323.136322,361.525269 326.247253,364.778931 329.449158,367.937714 
	C339.551514,377.903992 342.797607,377.679016 352.463440,367.067474 
	C361.751801,356.870331 371.181580,346.797760 380.717712,336.831665 
	C392.451935,324.568298 404.258972,312.370544 416.237000,300.346100 
	C422.219513,294.340454 423.440125,287.574982 420.962463,279.427307 
	C420.943451,278.326630 420.911224,277.591980 420.895416,276.638794 
	C420.911835,276.420319 421.045807,276.003113 421.405609,276.075256 
	C426.203003,280.455963 426.660675,292.272461 422.177673,297.226440 
	C413.143097,307.210236 403.876709,316.984802 394.668243,326.810303 
	C392.162354,329.484161 389.482086,331.993805 386.949921,334.643890 
	C373.964661,348.233856 361.121643,361.962616 347.970306,375.389557 
	C342.901154,380.564911 338.456573,380.333862 333.084167,375.533234 
	C328.622833,371.546692 323.875671,367.778625 319.985138,363.282104 
	C315.786377,358.429321 311.695007,358.975708 306.216888,360.703125 
	C296.750214,363.688232 287.055328,366.877136 277.262695,367.712585 
	C255.265854,369.589233 233.677582,367.129242 213.785782,356.360931 
	C210.153000,354.394348 207.401489,354.896667 204.485977,357.915009 
	C196.382553,366.304352 188.174759,374.604645 179.720154,382.636932 
	C176.506393,385.690186 172.846313,388.918427 168.788712,390.293030 
	C162.093048,392.561310 157.341110,396.892517 152.779358,401.766571 
	C151.194733,403.459717 149.923996,405.447357 148.333160,407.133789 
	C136.235626,419.958557 124.042236,432.693268 111.988014,445.558411 
	C105.742104,452.224548 99.615631,459.009735 93.630592,465.910614 
	C89.647644,470.502991 86.258850,475.625671 82.132645,480.073639 
	C79.238960,483.192932 75.296471,485.320312 72.269775,488.339203 
	C66.149025,494.444244 60.229027,500.761780 54.468288,507.208008 
	C53.143700,508.690216 52.796818,511.046143 52.000000,513.000000 
M83.905602,468.483246 
	C83.524216,466.846344 83.418945,465.048431 82.609802,463.661011 
	C82.331337,463.183563 79.487831,463.342682 79.226631,463.887360 
	C78.618904,465.154724 78.231720,467.411255 78.940109,468.192169 
	C79.740860,469.074982 81.837639,468.782227 83.905602,468.483246 
z"/>
<path fill="#343434" opacity="1.000000" stroke="none" 
	d="
M52.468658,513.000000 
	C52.796818,511.046143 53.143700,508.690216 54.468288,507.208008 
	C60.229027,500.761780 66.149025,494.444244 72.269775,488.339203 
	C75.296471,485.320312 79.238960,483.192932 82.132645,480.073639 
	C86.258850,475.625671 89.647644,470.502991 93.630592,465.910614 
	C99.615631,459.009735 105.742104,452.224548 111.988014,445.558411 
	C124.042236,432.693268 136.235626,419.958557 148.333160,407.133789 
	C149.923996,405.447357 151.194733,403.459717 152.779358,401.766571 
	C157.341110,396.892517 162.093048,392.561310 168.788712,390.293030 
	C172.846313,388.918427 176.506393,385.690186 179.720154,382.636932 
	C188.174759,374.604645 196.382553,366.304352 204.485977,357.915009 
	C207.401489,354.896667 210.153000,354.394348 213.785782,356.360931 
	C233.677582,367.129242 255.265854,369.589233 277.262695,367.712585 
	C287.055328,366.877136 296.750214,363.688232 306.216888,360.703125 
	C311.695007,358.975708 315.786377,358.429321 319.985138,363.282104 
	C323.875671,367.778625 328.622833,371.546692 333.084167,375.533234 
	C338.456573,380.333862 342.901154,380.564911 347.970306,375.389557 
	C361.121643,361.962616 373.964661,348.233856 386.949921,334.643890 
	C389.482086,331.993805 392.162354,329.484161 394.668243,326.810303 
	C403.876709,316.984802 413.143097,307.210236 422.177673,297.226440 
	C426.660675,292.272461 426.203003,280.455963 421.344238,275.639893 
	C420.865570,273.086853 420.808075,271.041351 420.827454,268.628113 
	C420.706543,267.315796 420.508759,266.371124 420.269104,265.410217 
	C420.227203,265.393951 420.141907,265.422302 420.268066,265.022400 
	C419.099792,262.936462 417.977783,261.076172 416.480621,259.595093 
	C410.576324,253.754105 404.554169,248.032227 398.891022,242.084412 
	C405.931610,235.296692 412.796692,228.823929 419.297974,222.004303 
	C421.274139,219.931412 422.700806,217.031586 423.495270,214.257385 
	C423.920929,212.770966 422.467346,210.746338 421.741730,208.640533 
	C421.320251,207.445236 421.018799,206.574005 420.686340,205.376526 
	C417.992432,200.313232 415.948792,194.949249 409.394958,193.714630 
	C407.359863,187.254257 402.368408,188.210617 397.714203,188.387375 
	C388.161713,184.154205 382.505188,175.717285 376.291412,168.010727 
	C375.324310,166.811218 375.908722,162.960876 377.155060,161.595078 
	C388.462433,149.203781 400.110962,137.124710 411.593109,124.891800 
	C431.255402,103.943863 450.898743,82.977966 470.493683,61.967026 
	C482.721954,48.855095 494.811615,35.613716 507.066742,22.527121 
	C508.460358,21.038925 510.522766,20.177031 512.637573,19.012367 
	C513.000000,183.591187 513.000000,348.182373 513.000000,513.000000 
	C359.645844,513.000000 206.291580,513.000000 52.468658,513.000000 
z"/>
<path fill="#999798" opacity="1.000000" stroke="none" 
	d="
M125.178391,352.397247 
	C125.177773,349.651215 124.758835,346.829742 125.238487,344.170319 
	C134.252609,294.191956 143.367813,244.231842 152.476013,194.270477 
	C154.335953,184.068054 154.362350,184.071121 164.934952,183.923203 
	C165.767166,183.911560 166.600052,183.948288 167.842621,184.436584 
	C167.908798,186.992569 167.564972,189.074524 167.107544,191.526428 
	C166.721588,193.197113 166.416016,194.491882 166.181702,195.799423 
	C157.448685,244.531006 148.722214,293.263733 139.919434,342.308472 
	C139.173523,343.689972 138.503021,344.759308 137.609833,346.015869 
	C136.603348,347.287476 135.819565,348.371826 134.639481,349.519287 
	C132.970291,350.600708 131.697388,351.619019 130.083420,352.542419 
	C128.808777,352.514587 127.875183,352.581635 126.669312,352.504333 
	C125.990814,352.372375 125.584602,352.384827 125.178391,352.397247 
z"/>
<path fill="#01ABF7" opacity="1.000000" stroke="none" 
	d="
M302.055786,175.011551 
	C302.099213,173.954391 302.142670,172.897217 302.631531,171.415253 
	C304.058441,168.659943 305.039948,166.329422 306.378021,164.121933 
	C307.071930,164.596634 307.727478,164.975922 307.699707,165.295883 
	C307.128235,171.878555 311.164551,171.941620 316.184204,172.116089 
	C333.159271,172.706085 350.360199,169.625702 367.355225,175.129333 
	C370.862915,178.430237 374.180328,181.476608 377.271973,184.737045 
	C381.018951,188.688568 384.575195,192.820984 387.816345,196.862549 
	C383.419922,195.900375 379.430359,194.177826 375.420654,194.129501 
	C353.185364,193.861679 330.943756,193.875458 308.708038,194.125854 
	C305.056244,194.166977 301.445892,195.973022 297.767639,196.725006 
	C296.629791,196.957657 295.330658,196.401443 294.235535,195.893402 
	C296.807220,193.213623 299.342163,190.934372 301.664215,188.455704 
	C304.041534,185.918060 304.961761,183.417709 300.487488,182.024963 
	C300.734589,180.639557 300.981689,179.254135 301.589355,177.392731 
	C301.985168,176.281677 302.020477,175.646606 302.055786,175.011551 
z"/>
<path fill="#222324" opacity="1.000000" stroke="none" 
	d="
M125.027512,352.811646 
	C125.584602,352.384827 125.990814,352.372375 126.690910,352.971313 
	C126.967064,355.062195 127.075363,356.555939 126.910103,358.018768 
	C126.135765,364.872864 127.311783,366.732819 134.222214,369.279175 
	C136.901001,372.639191 138.991730,376.171722 141.934738,378.719879 
	C149.607849,385.363403 165.809296,384.716522 174.834976,375.439941 
	C184.584335,365.419586 194.701080,355.756683 205.077469,345.965942 
	C209.131149,347.080200 213.092041,347.571045 216.341766,349.356354 
	C230.007446,356.863983 244.666275,360.914581 260.067139,361.891479 
	C277.233673,362.980438 293.891113,360.096924 309.688538,353.085541 
	C313.199219,351.527405 316.144348,351.876373 318.875275,354.401123 
	C324.122894,359.252625 329.315216,364.163879 334.547943,369.031555 
	C339.874939,373.986938 341.534454,374.043823 346.531616,368.919678 
	C351.753021,363.565582 356.747040,357.990509 361.928040,352.596130 
	C379.327759,334.479736 396.669647,316.305878 414.253662,298.369690 
	C419.072906,293.453918 420.658722,288.155945 419.061279,281.426331 
	C419.786255,280.721710 420.367767,280.257538 420.949280,279.793335 
	C423.440125,287.574982 422.219513,294.340454 416.237000,300.346100 
	C404.258972,312.370544 392.451935,324.568298 380.717712,336.831665 
	C371.181580,346.797760 361.751801,356.870331 352.463440,367.067474 
	C342.797607,377.679016 339.551514,377.903992 329.449158,367.937714 
	C326.247253,364.778931 323.136322,361.525269 319.871307,358.433807 
	C316.454803,355.199005 312.837921,354.141022 308.094666,356.315918 
	C295.054596,362.295074 280.988922,364.801819 266.881042,364.740082 
	C251.074356,364.670898 235.456375,361.894562 221.066116,354.541382 
	C218.099426,353.025421 215.087250,351.597687 212.133347,350.057739 
	C209.080231,348.466064 206.527359,348.788757 204.059372,351.380524 
	C199.695251,355.963531 195.199432,360.426331 190.645264,364.821930 
	C184.544662,370.710114 178.559586,376.748444 172.117096,382.244263 
	C164.093185,389.089081 145.227371,389.764801 136.807419,378.908905 
	C133.846634,375.091583 129.524887,372.354462 126.328316,368.685272 
	C124.664413,366.775360 123.413269,363.963135 123.219772,361.462250 
	C123.011909,358.775665 124.262459,355.976257 125.027512,352.811646 
z"/>
<path fill="#F9F9F9" opacity="1.000000" stroke="none" 
	d="
M212.135025,224.356537 
	C230.402130,213.165268 250.298843,208.495514 271.882568,209.865356 
	C267.085052,215.440491 262.017029,220.644623 256.538818,225.868652 
	C245.255524,227.885162 234.587799,230.427567 225.287735,237.227859 
	C221.451324,233.913437 217.908142,230.754837 214.216888,227.300156 
	C213.424210,226.121567 212.779617,225.239044 212.135025,224.356537 
z"/>
<path fill="#3AC6F8" opacity="1.000000" stroke="none" 
	d="
M388.213928,196.875137 
	C384.575195,192.820984 381.018951,188.688568 377.271973,184.737045 
	C374.180328,181.476608 370.862915,178.430237 367.188019,174.839722 
	C361.140106,168.597763 355.549652,162.805115 349.811798,156.715820 
	C345.001678,151.670105 340.383423,146.876389 335.667938,142.180313 
	C321.456116,128.027008 305.571320,117.005280 284.755859,115.424500 
	C275.314941,114.707527 265.890167,114.355804 256.635132,118.122360 
	C256.247131,118.560570 256.059296,118.842789 255.503311,119.137772 
	C254.153015,119.165863 253.170853,119.181206 251.757797,119.129951 
	C249.187943,119.390526 247.049011,119.717690 244.542633,120.071350 
	C242.788055,119.381683 241.400909,118.665535 240.013779,117.949387 
	C240.705673,117.201813 241.397568,116.454231 242.694687,115.949303 
	C245.388870,116.339409 247.534439,116.863426 249.555527,116.559555 
	C254.460938,115.822014 259.278473,114.498360 264.184509,113.766823 
	C285.123413,110.644592 304.328613,115.033661 321.828125,127.083740 
	C326.096222,130.022705 330.835999,132.276688 335.358887,134.845612 
	C353.186890,152.589676 371.014893,170.333755 388.951904,188.798508 
	C388.750977,193.094894 390.704742,194.068207 393.903381,194.008087 
	C399.102539,193.910370 404.305542,194.017242 409.506927,194.037781 
	C415.948792,194.949249 417.992432,200.313232 420.497314,205.416412 
	C420.339264,205.782516 419.972046,205.903717 419.570557,205.903137 
	C416.941193,204.907684 414.546906,204.166809 412.532227,202.846619 
	C410.509247,201.520981 408.864532,199.618088 406.891235,197.690506 
	C405.821442,196.915802 404.914490,196.418747 403.563477,195.900314 
	C398.150909,196.210999 393.182434,196.543060 388.213928,196.875137 
z"/>
<path fill="#46B6F1" opacity="1.000000" stroke="none" 
	d="
M256.949005,225.848770 
	C262.017029,220.644623 267.085052,215.440491 272.370331,209.973694 
	C277.312347,205.319534 282.140533,201.032944 286.732880,196.507095 
	C291.332916,191.973648 295.697479,187.201324 300.326385,182.279343 
	C304.961761,183.417709 304.041534,185.918060 301.664215,188.455704 
	C299.342163,190.934372 296.807220,193.213623 293.922668,196.011017 
	C290.956665,199.275177 288.433716,202.108734 285.580688,205.006409 
	C283.812500,206.683182 282.374420,208.295822 280.771271,210.197189 
	C277.366730,213.934738 274.127258,217.383560 270.540588,220.882141 
	C267.799561,222.957886 265.405701,224.983871 262.671997,227.054413 
	C261.223267,228.401947 260.114349,229.704895 258.833008,231.294708 
	C257.328308,232.792419 255.908432,233.920898 254.679413,235.228729 
	C250.084717,240.118164 245.552521,245.066330 240.699463,250.143219 
	C236.615433,253.928574 232.828842,257.563171 228.741669,261.327209 
	C221.725983,267.684418 215.010849,273.912201 208.028046,280.068298 
	C207.329559,278.684418 206.898773,277.372192 206.774536,275.866486 
	C209.571991,273.174011 212.062912,270.675018 214.843964,268.075684 
	C216.588882,266.387695 218.043655,264.800079 219.679047,263.017517 
	C219.919586,262.655792 219.979523,262.489044 220.377258,262.230103 
	C225.624832,257.258545 230.534607,252.379196 235.754333,247.364304 
	C239.014786,244.128632 241.965271,241.028488 245.214417,237.782242 
	C249.325058,233.707001 253.137039,229.777893 256.949005,225.848770 
z"/>
<path fill="#525152" opacity="1.000000" stroke="none" 
	d="
M420.962463,279.427307 
	C420.367767,280.257538 419.786255,280.721710 418.779663,281.632935 
	C392.554504,308.671570 366.754456,335.263214 340.740570,362.075256 
	C331.897125,353.452545 323.446869,345.213196 315.173004,336.693329 
	C316.569855,335.934967 317.790375,335.457092 319.150940,335.282349 
	C325.040771,341.108063 330.953583,346.473755 336.478516,352.212799 
	C339.736237,355.596741 342.363678,355.213501 345.302673,352.157013 
	C354.522888,342.568268 363.773285,333.008423 372.980469,323.407166 
	C386.787811,309.008911 400.512238,294.530243 414.436584,280.246307 
	C416.047607,278.593658 418.706116,277.962189 420.878998,276.857300 
	C420.911224,277.591980 420.943451,278.326630 420.962463,279.427307 
z"/>
<path fill="#939394" opacity="1.000000" stroke="none" 
	d="
M420.895416,276.638794 
	C418.706116,277.962189 416.047607,278.593658 414.436584,280.246307 
	C400.512238,294.530243 386.787811,309.008911 372.980469,323.407166 
	C363.773285,333.008423 354.522888,342.568268 345.302673,352.157013 
	C342.363678,355.213501 339.736237,355.596741 336.478516,352.212799 
	C330.953583,346.473755 325.040771,341.108063 319.311401,335.009094 
	C320.743408,334.537384 322.575195,334.113708 323.490784,334.841980 
	C326.732544,337.420441 329.740356,340.312469 332.693207,343.230988 
	C340.563965,351.010284 340.570160,351.075531 348.353607,343.138794 
	C362.692566,328.517426 377.011414,313.876099 391.285492,299.191406 
	C398.590851,291.675812 405.756042,284.024170 413.037415,276.485016 
	C415.525696,273.908661 418.174927,271.487762 420.750610,268.995850 
	C420.808075,271.041351 420.865570,273.086853 420.984436,275.567749 
	C421.045807,276.003113 420.911835,276.420319 420.895416,276.638794 
z"/>
<path fill="#61D2F4" opacity="1.000000" stroke="none" 
	d="
M335.196716,134.547455 
	C330.835999,132.276688 326.096222,130.022705 321.828125,127.083740 
	C304.328613,115.033661 285.123413,110.644592 264.184509,113.766823 
	C259.278473,114.498360 254.460938,115.822014 249.555527,116.559555 
	C247.534439,116.863426 245.388870,116.339409 243.003983,115.884750 
	C262.198761,107.276672 282.238434,106.133751 302.156799,112.961197 
	C314.649109,117.243202 325.765350,124.541054 335.196716,134.547455 
z"/>
<path fill="#EA545A" opacity="1.000000" stroke="none" 
	d="
M211.891861,224.196167 
	C212.779617,225.239044 213.424210,226.121567 213.874603,227.522675 
	C211.280121,227.677811 208.104797,228.172134 206.602463,226.814789 
	C194.882187,216.225494 183.503754,205.258606 171.959259,194.473068 
	C170.564484,193.169952 168.809296,192.252625 167.221161,191.156479 
	C167.564972,189.074524 167.908798,186.992569 168.324097,184.517410 
	C178.379257,193.408936 188.347565,202.710266 198.353683,211.970749 
	C202.745621,216.035370 207.214661,220.016647 211.891861,224.196167 
z"/>
<path fill="#222324" opacity="1.000000" stroke="none" 
	d="
M301.821594,165.011917 
	C300.865936,163.591644 299.427460,162.294159 299.030090,160.731903 
	C295.503296,146.865143 276.506104,129.961243 260.872742,129.941528 
	C255.476959,129.934723 250.024628,129.634216 244.708710,128.779770 
	C241.641068,128.286713 237.933350,127.206589 239.255249,122.372070 
	C243.689117,122.890556 247.656403,123.988281 251.638580,124.045303 
	C264.240051,124.225777 275.723450,126.764923 285.654388,135.430832 
	C292.881744,141.737534 297.714539,149.251297 301.115356,158.340881 
	C301.285461,159.402390 301.418579,160.106430 301.455139,161.095947 
	C301.568604,161.920593 301.778595,162.459747 301.975128,163.336060 
	C301.914948,164.119476 301.868286,164.565689 301.821594,165.011917 
z"/>
<path fill="#027298" opacity="1.000000" stroke="none" 
	d="
M301.078369,157.983429 
	C297.714539,149.251297 292.881744,141.737534 285.654388,135.430832 
	C275.723450,126.764923 264.240051,124.225777 251.638580,124.045303 
	C247.656403,123.988281 243.689117,122.890556 239.383881,122.062973 
	C239.171280,120.686127 239.289825,119.515419 239.711075,118.147049 
	C241.400909,118.665535 242.788055,119.381683 244.969025,120.102600 
	C247.904816,119.803764 250.046753,119.500160 252.188705,119.196548 
	C253.170853,119.181206 254.153015,119.165863 255.762070,119.339935 
	C257.600952,119.449074 258.812897,119.368782 260.384674,119.301270 
	C262.164581,119.534050 263.584717,119.754044 265.265198,120.229767 
	C270.304688,122.044006 275.083740,123.602524 279.896423,125.172562 
	C279.930023,125.184082 279.856659,125.189186 279.958923,125.500137 
	C280.997070,126.259163 281.932983,126.707230 282.876648,127.170349 
	C282.884460,127.185394 282.854675,127.215637 282.928375,127.544495 
	C286.897003,131.664062 291.069183,135.214310 294.617584,139.305557 
	C299.184235,144.570755 303.130646,150.310699 301.078369,157.983429 
z"/>
<path fill="#019FD7" opacity="1.000000" stroke="none" 
	d="
M301.115356,158.340881 
	C303.130646,150.310699 299.184235,144.570755 294.617584,139.305557 
	C291.069183,135.214310 286.897003,131.664062 283.286377,127.526901 
	C289.360931,132.128006 295.151245,137.075562 301.003662,142.382843 
	C304.334808,149.450989 306.869720,156.330566 306.021454,163.998901 
	C305.039948,166.329422 304.058441,168.659943 302.725159,171.028900 
	C302.264374,169.329208 302.155334,167.591095 301.933929,165.432449 
	C301.868286,164.565689 301.914948,164.119476 302.159424,163.180634 
	C302.088684,162.062164 301.820221,161.436310 301.551697,160.810471 
	C301.418579,160.106430 301.285461,159.402390 301.115356,158.340881 
z"/>
<path fill="#61D2F4" opacity="1.000000" stroke="none" 
	d="
M409.394958,193.714615 
	C404.305542,194.017242 399.102539,193.910370 393.903381,194.008087 
	C390.704742,194.068207 388.750977,193.094894 389.083405,189.094391 
	C390.227539,189.526642 391.349213,190.383682 392.605621,191.343689 
	C394.123749,190.502899 395.626038,189.670898 397.421265,188.613129 
	C402.368408,188.210617 407.359863,187.254257 409.394958,193.714615 
z"/>
<path fill="#343434" opacity="1.000000" stroke="none" 
	d="
M83.638214,468.741974 
	C81.837639,468.782227 79.740860,469.074982 78.940109,468.192169 
	C78.231720,467.411255 78.618904,465.154724 79.226631,463.887360 
	C79.487831,463.342682 82.331337,463.183563 82.609802,463.661011 
	C83.418945,465.048431 83.524216,466.846344 83.638214,468.741974 
z"/>
<path fill="#019FD7" opacity="1.000000" stroke="none" 
	d="
M301.863770,175.218781 
	C302.020477,175.646606 301.985168,176.281677 301.717957,176.990845 
	C301.547913,176.518631 301.609802,175.972321 301.863770,175.218781 
z"/>
<path fill="#999798" opacity="1.000000" stroke="none" 
	d="
M420.827454,268.628143 
	C418.174927,271.487762 415.525696,273.908661 413.037415,276.485016 
	C405.756042,284.024170 398.590851,291.675812 391.285492,299.191406 
	C377.011414,313.876099 362.692566,328.517426 348.353607,343.138794 
	C340.570160,351.075531 340.563965,351.010284 332.693207,343.230988 
	C329.740356,340.312469 326.732544,337.420441 323.490784,334.841980 
	C322.575195,334.113708 320.743408,334.537384 319.171326,334.705963 
	C317.790375,335.457092 316.569855,335.934967 314.830750,336.788208 
	C306.384369,340.080414 298.670624,344.035156 290.489227,345.722595 
	C264.204529,351.143951 238.903656,347.811676 214.939026,334.636353 
	C213.862579,333.869598 212.963913,333.362549 211.884277,332.611053 
	C210.826965,331.857819 209.950653,331.349030 208.895950,330.582092 
	C207.109741,329.011139 205.501907,327.698364 203.769516,326.107239 
	C203.131302,325.537537 202.617661,325.246155 202.069244,324.963593 
	C202.034454,324.972382 202.042175,324.901062 201.968597,324.566589 
	C198.206589,319.845764 194.518188,315.459442 190.873108,311.069092 
	C190.916458,311.065094 190.869949,311.138672 190.893829,310.770996 
	C189.952423,309.266510 188.987152,308.129639 187.856461,306.926147 
	C187.691055,306.859497 187.362167,306.721558 187.324112,306.407043 
	C186.937927,305.334503 186.589798,304.576416 186.199890,303.416138 
	C185.236694,301.606903 184.315292,300.199921 183.586777,298.394653 
	C183.693771,295.680573 183.607910,293.364716 183.896896,291.096680 
	C185.446701,292.618561 186.555038,294.152191 187.810104,295.554535 
	C190.625198,298.699921 193.513214,301.780029 196.605316,305.005310 
	C197.250748,305.676300 197.662430,306.228699 198.068024,307.171692 
	C199.429474,308.666351 200.797012,309.770447 202.118286,310.884796 
	C202.072021,310.895081 202.121658,310.814301 202.137009,311.174011 
	C205.156372,313.644714 208.160385,315.755768 211.121368,317.864441 
	C211.078354,317.862061 211.128738,317.792175 211.161041,318.144531 
	C215.820648,322.671997 220.460800,326.821350 227.301270,326.585266 
	C227.288727,326.640350 227.184631,326.596375 227.339996,326.948303 
	C229.421219,327.836273 231.347061,328.372314 233.456207,328.890808 
	C233.639496,328.873260 233.996582,328.963287 234.051010,329.244324 
	C234.778549,329.603943 235.451660,329.682465 236.490067,329.791443 
	C238.280746,330.024841 239.706116,330.227844 241.150085,330.783081 
	C242.191956,333.568573 243.123627,333.211884 244.342529,331.029236 
	C245.129333,331.148834 245.569382,331.281647 246.054779,331.776733 
	C246.787003,332.740326 247.452820,333.838196 248.163925,333.868347 
	C258.445496,334.304565 268.746918,335.004517 279.010284,334.657166 
	C281.805908,334.562561 286.317993,336.063385 288.253815,331.367432 
	C288.974731,331.135681 289.486938,331.063202 290.088989,331.320801 
	C293.095245,333.768616 294.834595,332.631470 296.181885,329.390228 
	C298.594147,328.629639 300.709106,328.066528 302.954132,327.683716 
	C303.324036,327.656677 303.563843,327.449371 304.023315,327.015442 
	C305.828979,326.196686 307.414978,325.604553 309.039703,325.229401 
	C309.281586,325.595337 309.484802,325.744263 309.687988,325.893219 
	C309.752106,325.464905 309.816223,325.036621 310.133423,324.386230 
	C325.319580,317.344086 337.351013,307.262177 345.920593,292.848328 
	C347.582184,291.873383 348.878967,290.928741 350.223389,290.412415 
	C348.341370,297.370331 346.411743,303.899933 344.325500,310.712463 
	C343.390717,312.228729 342.612549,313.462097 341.586029,314.928253 
	C335.949829,320.993530 330.561981,326.826050 326.160492,331.590759 
	C330.448273,336.562134 335.307220,342.195740 340.701416,348.449921 
	C367.565094,320.434235 393.938049,292.930359 420.310974,265.426483 
	C420.508759,266.371124 420.706543,267.315796 420.827454,268.628143 
M344.463806,297.492889 
	C344.463806,297.492889 344.515411,297.470367 344.463806,297.492889 
M306.493011,327.535919 
	C306.493011,327.535919 306.470551,327.484314 306.493011,327.535919 
z"/>
<path fill="#0467B3" opacity="1.000000" stroke="none" 
	d="
M420.269104,265.410217 
	C393.938049,292.930359 367.565094,320.434235 340.701416,348.449921 
	C335.307220,342.195740 330.448273,336.562134 326.160492,331.590759 
	C330.561981,326.826050 335.949829,320.993530 341.911041,315.133789 
	C347.737213,317.539337 350.231445,312.957520 352.878418,310.367676 
	C362.740753,300.718170 372.097992,290.554779 381.805908,280.743683 
	C384.674591,277.844513 384.059998,275.974518 381.054596,273.880981 
	C381.469513,272.919617 381.768921,272.225189 382.408203,271.416412 
	C384.834869,269.354797 386.921631,267.407532 389.017700,265.451599 
	C386.681000,262.908783 384.822052,260.885895 383.151672,258.591339 
	C387.244049,254.544891 391.147888,250.770096 395.340149,247.156250 
	C399.070496,250.684753 402.325378,254.275421 406.003967,257.360901 
	C410.188080,260.870392 413.643921,265.890778 420.141907,265.422302 
	C420.141907,265.422302 420.227203,265.393951 420.269104,265.410217 
z"/>
<path fill="#0097EF" opacity="1.000000" stroke="none" 
	d="
M419.972046,205.903717 
	C419.972046,205.903717 420.339264,205.782516 420.528320,205.742645 
	C421.018799,206.574005 421.320251,207.445236 421.616821,208.827408 
	C421.611969,209.338333 421.428345,209.748474 421.098755,209.818192 
	C419.210724,210.761932 417.390778,211.360840 416.135529,212.553864 
	C406.730957,221.492157 397.163025,230.283676 388.180664,239.634567 
	C377.378815,250.879623 373.650818,251.218201 362.847565,239.618454 
	C360.983093,237.616516 358.018982,236.638733 355.456879,234.893158 
	C355.229309,233.764954 355.107697,232.931458 355.129028,231.787628 
	C355.899628,230.033920 356.527252,228.590576 357.434570,226.943161 
	C358.096863,225.494171 358.479431,224.249252 359.123657,222.782990 
	C358.943573,220.970016 358.501831,219.378357 358.028931,217.457153 
	C357.265594,216.473541 356.533356,215.819458 355.461365,215.126221 
	C353.386383,213.893784 351.651154,212.700531 350.098541,211.231674 
	C351.940369,211.346603 353.780823,211.402206 355.227722,212.185120 
	C361.806152,215.744705 368.672943,217.508713 376.226440,217.073898 
	C382.344666,216.721710 388.550720,216.496552 394.626526,217.113754 
	C405.385101,218.206665 412.676941,212.227432 419.972046,205.903717 
z"/>
<path fill="#222324" opacity="1.000000" stroke="none" 
	d="
M421.428345,209.748474 
	C421.428345,209.748474 421.611969,209.338333 421.736877,209.151459 
	C422.467346,210.746338 423.920929,212.770966 423.495270,214.257385 
	C422.700806,217.031586 421.274139,219.931412 419.297974,222.004303 
	C412.796692,228.823929 405.931610,235.296692 398.603668,241.999054 
	C397.619171,241.971390 397.237305,241.847351 396.731812,241.424438 
	C397.185883,239.477921 397.315826,237.401596 398.415161,236.253525 
	C404.714417,229.675003 411.370728,223.436478 417.614441,216.808044 
	C419.386597,214.926651 420.183960,212.127014 421.428345,209.748474 
z"/>
<path fill="#3884BE" opacity="1.000000" stroke="none" 
	d="
M396.855408,241.723328 
	C397.237305,241.847351 397.619171,241.971390 398.288422,242.180786 
	C404.554169,248.032227 410.576324,253.754105 416.480621,259.595093 
	C417.977783,261.076172 419.099792,262.936462 420.268066,265.022400 
	C413.643921,265.890778 410.188080,260.870392 406.003967,257.360901 
	C402.325378,254.275421 399.070496,250.684753 395.334473,246.786926 
	C395.645416,244.745560 396.250397,243.234436 396.855408,241.723328 
z"/>
<path fill="#EB1D25" opacity="1.000000" stroke="none" 
	d="
M167.107544,191.526428 
	C168.809296,192.252625 170.564484,193.169952 171.959259,194.473068 
	C183.503754,205.258606 194.882187,216.225494 206.602463,226.814789 
	C208.104797,228.172134 211.280121,227.677811 214.022705,227.818756 
	C217.908142,230.754837 221.451324,233.913437 225.462036,237.521118 
	C228.816025,240.683456 231.702484,243.396729 234.772430,246.476151 
	C235.118729,247.061478 235.281540,247.280655 235.444366,247.499817 
	C230.534607,252.379196 225.624832,257.258545 220.177094,261.945496 
	C207.947479,250.829407 196.255829,239.905701 183.850967,228.315628 
	C183.458694,230.778580 183.210876,232.334564 182.764984,234.031204 
	C182.566910,234.171860 182.193375,234.479889 182.000336,234.213074 
	C178.068939,233.381760 177.521530,236.098557 177.021530,238.715302 
	C173.498978,257.150909 170.068298,275.604370 166.465576,294.024200 
	C165.825348,297.297546 166.750351,299.179565 169.920364,300.437988 
	C169.761719,301.909576 169.590866,302.976257 169.263885,304.368805 
	C168.620819,307.731293 168.133865,310.767883 167.426514,314.057220 
	C158.135712,323.538757 149.065308,332.767548 139.994873,341.996338 
	C148.722214,293.263733 157.448685,244.531006 166.181702,195.799423 
	C166.416016,194.491882 166.721588,193.197113 167.107544,191.526428 
z"/>
<path fill="#4A90E6" opacity="1.000000" stroke="none" 
	d="
M139.919449,342.308472 
	C149.065308,332.767548 158.135712,323.538757 167.773331,314.004456 
	C173.376221,308.754974 178.411911,303.810974 183.438416,298.845520 
	C183.429245,298.824066 183.393906,298.792908 183.393906,298.792908 
	C184.315292,300.199921 185.236694,301.606903 185.839981,303.498291 
	C183.967987,305.197327 182.273849,306.270477 180.882614,307.649261 
	C170.707520,317.733459 160.808899,328.110260 150.339447,337.876251 
	C146.809784,341.168732 143.960358,346.317719 137.832535,345.828644 
	C138.503021,344.759308 139.173523,343.689972 139.919449,342.308472 
z"/>
<path fill="#2582EE" opacity="1.000000" stroke="none" 
	d="
M137.609833,346.015869 
	C143.960358,346.317719 146.809784,341.168732 150.339447,337.876251 
	C160.808899,328.110260 170.707520,317.733459 180.882614,307.649261 
	C182.273849,306.270477 183.967987,305.197327 185.881775,303.900513 
	C186.589798,304.576416 186.937927,305.334503 186.957504,306.510040 
	C182.678452,310.193817 178.478867,313.205048 174.823929,316.774017 
	C163.617447,327.716919 152.553711,338.808990 141.597687,350.002777 
	C139.438751,352.208618 137.399124,352.987213 134.660370,351.512268 
	C134.830307,350.551971 134.933044,350.004059 135.035797,349.456177 
	C135.819565,348.371826 136.603348,347.287476 137.609833,346.015869 
z"/>
<path fill="#171717" opacity="1.000000" stroke="none" 
	d="
M134.022522,369.003174 
	C127.311783,366.732819 126.135765,364.872864 126.910103,358.018768 
	C127.075363,356.555939 126.967064,355.062195 126.963196,353.115662 
	C127.875183,352.581635 128.808777,352.514587 130.484802,352.681549 
	C132.054962,352.994171 132.882675,353.072815 133.765503,353.450043 
	C133.853745,354.154602 133.886871,354.560547 133.698120,355.291077 
	C133.385818,358.034241 133.295380,360.452850 133.133240,363.258057 
	C133.381866,365.430817 133.702194,367.216980 134.022522,369.003174 
z"/>
<path fill="#2F2F30" opacity="1.000000" stroke="none" 
	d="
M133.710388,353.151428 
	C132.882675,353.072815 132.054962,352.994171 130.825867,352.776428 
	C131.697388,351.619019 132.970291,350.600708 134.639496,349.519287 
	C134.933044,350.004059 134.830307,350.551971 134.473907,351.682770 
	C134.050293,352.560944 133.880341,352.856171 133.710388,353.151428 
z"/>
<path fill="#00A3F6" opacity="1.000000" stroke="none" 
	d="
M419.570557,205.903137 
	C412.676941,212.227432 405.385101,218.206665 394.626526,217.113754 
	C388.550720,216.496552 382.344666,216.721710 376.226440,217.073898 
	C368.672943,217.508713 361.806152,215.744705 355.227722,212.185120 
	C353.780823,211.402206 351.940369,211.346603 349.869446,211.174255 
	C349.457703,211.392441 348.999176,211.285431 348.819550,210.996918 
	C348.007843,210.566605 347.375793,210.424805 346.398010,210.281158 
	C345.362854,210.231506 344.673431,210.183685 343.729706,209.868607 
	C341.656250,209.780487 339.837067,209.959641 337.715302,210.163651 
	C337.008148,210.196030 336.603546,210.203568 335.883942,210.195038 
	C335.037384,210.716888 334.505859,211.254791 333.667725,211.865677 
	C332.946136,212.003036 332.531189,212.067398 331.782043,212.128052 
	C330.293732,212.751862 329.139587,213.379379 327.617310,214.017914 
	C326.191772,214.457092 325.000763,214.698593 324.098969,215.344177 
	C318.879333,219.080750 313.141022,220.102264 306.739990,220.143860 
	C295.350037,220.217896 283.966431,221.185745 272.577179,221.714737 
	C272.028870,221.740189 271.451569,221.140808 270.887787,220.832397 
	C274.127258,217.383560 277.366730,213.934738 281.117371,210.170990 
	C283.055939,208.218140 284.483368,206.580200 285.910767,204.942276 
	C288.433716,202.108734 290.956665,199.275177 293.792480,196.324020 
	C295.330658,196.401443 296.629791,196.957657 297.767639,196.725006 
	C301.445892,195.973022 305.056244,194.166977 308.708038,194.125854 
	C330.943756,193.875458 353.185364,193.861679 375.420654,194.129501 
	C379.430359,194.177826 383.419922,195.900375 387.816345,196.862549 
	C393.182434,196.543060 398.150909,196.210999 403.642151,196.238861 
	C405.127960,197.055252 406.091003,197.511703 407.054047,197.968155 
	C408.864532,199.618088 410.509247,201.520981 412.532227,202.846619 
	C414.546906,204.166809 416.941193,204.907684 419.570557,205.903137 
z"/>
<path fill="#01B3F8" opacity="1.000000" stroke="none" 
	d="
M306.378021,164.121933 
	C306.869720,156.330566 304.334808,149.450989 301.354065,142.429352 
	C307.516876,148.902466 315.403656,148.290375 323.214417,148.011322 
	C325.376312,147.934067 327.543945,148.033417 329.707886,147.993530 
	C335.502380,147.886749 340.352020,149.925217 344.560242,153.941269 
	C346.013428,155.328064 348.140167,156.009064 349.959229,157.012466 
	C355.549652,162.805115 361.140106,168.597763 366.897766,174.680023 
	C350.360199,169.625702 333.159271,172.706085 316.184204,172.116089 
	C311.164551,171.941620 307.128235,171.878555 307.699707,165.295883 
	C307.727478,164.975922 307.071930,164.596634 306.378021,164.121933 
z"/>
<path fill="#171717" opacity="1.000000" stroke="none" 
	d="
M215.116791,334.896027 
	C238.903656,347.811676 264.204529,351.143951 290.489227,345.722595 
	C298.670624,344.035156 306.384369,340.080414 314.654419,337.068726 
	C323.446869,345.213196 331.897125,353.452545 340.740570,362.075256 
	C366.754456,335.263214 392.554504,308.671570 418.636200,281.873352 
	C420.658722,288.155945 419.072906,293.453918 414.253662,298.369690 
	C396.669647,316.305878 379.327759,334.479736 361.928040,352.596130 
	C356.747040,357.990509 351.753021,363.565582 346.531616,368.919678 
	C341.534454,374.043823 339.874939,373.986938 334.547943,369.031555 
	C329.315216,364.163879 324.122894,359.252625 318.875275,354.401123 
	C316.144348,351.876373 313.199219,351.527405 309.688538,353.085541 
	C293.891113,360.096924 277.233673,362.980438 260.067139,361.891479 
	C244.666275,360.914581 230.007446,356.863983 216.341766,349.356354 
	C213.092041,347.571045 209.131149,347.080200 205.276779,345.677307 
	C208.409729,341.872467 211.763260,338.384247 215.116791,334.896027 
z"/>
<path fill="#013C8D" opacity="1.000000" stroke="none" 
	d="
M214.939026,334.636353 
	C211.763260,338.384247 208.409729,341.872467 204.856888,345.649292 
	C194.701080,355.756683 184.584335,365.419586 174.834976,375.439941 
	C165.809296,384.716522 149.607849,385.363403 141.934738,378.719879 
	C138.991730,376.171722 136.901001,372.639191 134.222214,369.279175 
	C133.702194,367.216980 133.381866,365.430817 133.446030,363.368042 
	C136.892288,366.540100 139.596481,370.413422 143.087357,373.352325 
	C151.342285,380.302002 164.956940,378.452362 174.161118,369.387482 
	C185.161789,358.553253 196.016617,347.571014 206.998993,336.718048 
	C208.497086,335.237579 210.367325,334.133728 212.065247,332.855499 
	C212.963913,333.362549 213.862579,333.869598 214.939026,334.636353 
z"/>
<path fill="#939394" opacity="1.000000" stroke="none" 
	d="
M234.588959,246.110001 
	C231.702484,243.396729 228.816025,240.683456 225.755264,237.676941 
	C234.587799,230.427567 245.255524,227.885162 256.538818,225.868668 
	C253.137039,229.777893 249.325058,233.707001 244.840790,237.817688 
	C239.850266,239.374054 234.841476,239.933243 234.588959,246.110001 
z"/>
<path fill="#03BBF9" opacity="1.000000" stroke="none" 
	d="
M349.811798,156.715820 
	C348.140167,156.009064 346.013428,155.328064 344.560242,153.941269 
	C340.352020,149.925217 335.502380,147.886749 329.707886,147.993530 
	C327.543945,148.033417 325.376312,147.934067 323.214417,148.011322 
	C315.403656,148.290375 307.516876,148.902466 301.291931,142.069641 
	C295.151245,137.075562 289.360931,132.128006 283.212646,127.198044 
	C282.854675,127.215637 282.884460,127.185394 282.765991,126.856995 
	C281.717255,126.082130 280.786957,125.635658 279.856659,125.189186 
	C279.856659,125.189186 279.930023,125.184082 279.769989,124.841278 
	C275.171600,121.602188 270.671997,118.903572 265.004822,119.974037 
	C263.584717,119.754044 262.164581,119.534050 260.166260,119.012383 
	C258.670441,118.462593 257.752869,118.214478 256.835297,117.966370 
	C265.890167,114.355804 275.314941,114.707527 284.755859,115.424500 
	C305.571320,117.005280 321.456116,128.027008 335.667938,142.180313 
	C340.383423,146.876389 345.001678,151.670105 349.811798,156.715820 
z"/>
<path fill="#019FD7" opacity="1.000000" stroke="none" 
	d="
M256.635132,118.122360 
	C257.752869,118.214478 258.670441,118.462593 259.806458,118.999603 
	C258.812897,119.368782 257.600952,119.449074 256.130219,119.327187 
	C256.059296,118.842789 256.247131,118.560570 256.635132,118.122360 
z"/>
<path fill="#019FD7" opacity="1.000000" stroke="none" 
	d="
M251.757797,119.129959 
	C250.046753,119.500160 247.904816,119.803764 245.336456,120.076118 
	C247.049011,119.717690 249.187943,119.390526 251.757797,119.129959 
z"/>
<path fill="#01ABF7" opacity="1.000000" stroke="none" 
	d="
M406.891235,197.690506 
	C406.091003,197.511703 405.127960,197.055252 404.086243,196.260239 
	C404.914490,196.418747 405.821442,196.915802 406.891235,197.690506 
z"/>
<path fill="#FCFCFC" opacity="1.000000" stroke="none" 
	d="
M289.999115,330.990662 
	C289.486938,331.063202 288.974731,331.135681 287.806213,331.359192 
	C273.431122,333.750336 259.717987,333.557007 246.009415,331.414459 
	C245.569382,331.281647 245.129333,331.148834 243.997162,330.903931 
	C242.580521,330.671509 241.856003,330.551178 241.131500,330.430847 
	C239.706116,330.227844 238.280746,330.024841 236.323944,329.521057 
	C235.193893,329.134613 234.595230,329.048950 233.996582,328.963287 
	C233.996582,328.963287 233.639496,328.873260 233.248566,328.570953 
	C230.966614,327.711243 229.075623,327.153809 227.184631,326.596375 
	C227.184631,326.596375 227.288727,326.640350 227.181458,326.284302 
	C221.759048,323.216248 216.443893,320.504211 211.128738,317.792175 
	C211.128738,317.792175 211.078354,317.862061 210.950775,317.575745 
	C207.922699,315.131073 205.022171,312.972687 202.121658,310.814301 
	C202.121658,310.814301 202.072021,310.895081 201.978119,310.593414 
	C200.614197,309.121552 199.344147,307.951324 198.074112,306.781128 
	C197.662430,306.228699 197.250748,305.676300 196.443573,304.693665 
	C191.899658,296.723511 187.751266,289.183594 183.559479,281.200134 
	C183.665405,273.836548 183.814713,266.916534 184.185516,259.719208 
	C184.913345,257.626373 185.419647,255.810822 186.136322,253.717285 
	C187.602814,251.006561 188.858932,248.573822 190.335251,246.093811 
	C190.555435,246.046539 190.955917,245.840454 191.256058,246.004333 
	C194.495956,249.033035 197.586273,251.762054 200.329666,254.803986 
	C202.686127,257.416870 204.646210,260.387207 206.623962,263.604156 
	C206.473526,267.030182 206.480682,270.051544 206.433762,273.444275 
	C206.409119,274.563721 206.438553,275.311859 206.467987,276.059967 
	C206.898773,277.372192 207.329559,278.684418 207.986038,280.451935 
	C209.003815,282.514374 209.795929,284.121490 210.680206,286.037445 
	C216.573242,296.818207 226.098648,302.590973 236.987457,307.183655 
	C238.057922,307.701080 238.894485,307.973511 239.925781,308.472137 
	C240.698090,308.767181 241.275665,308.836029 242.212189,309.090942 
	C256.994690,312.503418 271.447510,313.927826 286.236084,310.040283 
	C286.644592,310.040253 286.804565,309.982513 287.346191,309.933594 
	C290.660828,308.840881 293.593781,307.739380 296.860107,306.685242 
	C302.169067,303.887207 307.144623,301.041809 312.442322,298.116516 
	C314.193390,296.492859 315.622345,294.949097 317.357727,293.234619 
	C319.493591,290.397461 321.322968,287.730957 323.410919,284.859436 
	C324.086151,283.434723 324.502808,282.214996 325.008301,280.636383 
	C325.766052,278.523346 326.434967,276.769226 327.275757,274.649231 
	C326.972931,269.184967 326.498199,264.086548 326.035034,258.619537 
	C325.002808,256.014008 324.258209,253.561920 322.842072,251.592865 
	C320.929596,248.933716 321.166321,247.167099 323.556854,244.918350 
	C326.903015,241.770691 329.836700,238.184509 333.297241,234.754486 
	C334.109955,234.801254 334.572266,234.879456 335.264404,235.198822 
	C342.088135,242.231094 346.585938,250.270416 349.610840,259.607880 
	C350.025787,265.343323 350.458710,270.646973 350.727112,276.276794 
	C350.417786,278.069427 350.273010,279.535919 349.844971,281.236420 
	C348.226440,285.273132 346.891144,289.075897 345.555817,292.878632 
	C337.351013,307.262177 325.319580,317.344086 309.897156,324.451660 
	C309.407806,324.739105 309.001007,325.012390 309.001007,325.012390 
	C307.414978,325.604553 305.828979,326.196686 303.765625,327.032227 
	C303.133606,327.351562 302.978851,327.427490 302.824066,327.503418 
	C300.709106,328.066528 298.594147,328.629639 295.806763,329.439697 
	C293.422546,330.121338 291.710846,330.556000 289.999115,330.990662 
z"/>
<path fill="#0097F3" opacity="1.000000" stroke="none" 
	d="
M270.540588,220.882156 
	C271.451569,221.140808 272.028870,221.740189 272.577179,221.714737 
	C283.966431,221.185745 295.350037,220.217896 306.739990,220.143860 
	C313.141022,220.102264 318.879333,219.080750 324.098969,215.344177 
	C325.000763,214.698593 326.191772,214.457092 327.490845,214.307693 
	C327.500031,215.386688 327.267487,216.186905 326.873291,217.279984 
	C323.456360,220.714752 320.201141,223.856659 316.588684,227.005096 
	C314.624146,228.042969 312.833832,228.873901 311.443665,230.143112 
	C307.212250,234.006348 303.135254,238.038712 298.607178,242.019867 
	C288.025940,246.263229 277.298584,244.832108 266.729584,244.983917 
	C258.499146,245.102158 250.003479,243.720306 242.942261,249.742355 
	C242.525681,250.097610 241.655807,249.921371 240.996887,249.992462 
	C245.552521,245.066330 250.084717,240.118164 254.679413,235.228729 
	C255.908432,233.920898 257.328308,232.792419 259.171021,231.246063 
	C260.791626,229.610321 261.901733,228.310089 263.011841,227.009842 
	C265.405701,224.983871 267.799561,222.957886 270.540588,220.882156 
z"/>
<path fill="#0086F1" opacity="1.000000" stroke="none" 
	d="
M210.588028,285.728638 
	C209.795929,284.121490 209.003815,282.514374 208.253723,280.523621 
	C215.010849,273.912201 221.725983,267.684418 228.807343,261.664734 
	C230.356445,262.447021 231.527664,263.475006 232.724487,263.505737 
	C235.670441,263.581329 238.625961,263.153992 241.581528,263.007690 
	C254.058441,262.390076 266.685913,264.599304 278.841034,261.294678 
	C274.836304,265.500671 271.191528,269.637665 267.109283,273.284973 
	C260.038177,279.602631 252.442825,284.264893 242.071625,283.177582 
	C233.844666,282.315063 225.447861,282.819214 217.142059,283.131256 
	C214.927979,283.214447 212.771149,284.821320 210.588028,285.728638 
z"/>
<path fill="#008EF2" opacity="1.000000" stroke="none" 
	d="
M279.004089,261.005310 
	C266.685913,264.599304 254.058441,262.390076 241.581528,263.007690 
	C238.625961,263.153992 235.670441,263.581329 232.724487,263.505737 
	C231.527664,263.475006 230.356445,262.447021 229.107910,261.535278 
	C232.828842,257.563171 236.615433,253.928574 240.699463,250.143219 
	C241.655807,249.921371 242.525681,250.097610 242.942261,249.742355 
	C250.003479,243.720306 258.499146,245.102158 266.729584,244.983917 
	C277.298584,244.832108 288.025940,246.263229 298.445801,242.309753 
	C292.118256,248.725082 285.561188,254.865189 279.004089,261.005310 
z"/>
<path fill="#999798" opacity="1.000000" stroke="none" 
	d="
M206.781586,263.199493 
	C204.646210,260.387207 202.686127,257.416870 200.329666,254.803986 
	C197.586273,251.762054 194.495956,249.033035 191.399689,245.659164 
	C192.805191,238.812164 191.103287,236.497879 182.963058,233.890549 
	C183.210876,232.334564 183.458694,230.778580 183.850967,228.315628 
	C196.255829,239.905701 207.947479,250.829407 219.839294,262.037720 
	C219.979523,262.489044 219.919586,262.655792 219.309021,262.989380 
	C214.766098,263.170654 210.773849,263.185089 206.781586,263.199493 
z"/>
<path fill="#676667" opacity="1.000000" stroke="none" 
	d="
M206.623962,263.604156 
	C210.773849,263.185089 214.766098,263.170654 219.128387,263.184387 
	C218.043655,264.800079 216.588882,266.387695 214.590210,267.789856 
	C212.140656,265.446991 210.657822,265.616638 209.366760,268.282593 
	C208.558090,269.952484 207.457474,271.480957 206.487854,273.072906 
	C206.480682,270.051544 206.473526,267.030182 206.623962,263.604156 
z"/>
<path fill="#676667" opacity="1.000000" stroke="none" 
	d="
M234.772430,246.476151 
	C234.841476,239.933243 239.850266,239.374054 244.542114,237.963806 
	C241.965271,241.028488 239.014786,244.128632 235.754333,247.364288 
	C235.281540,247.280655 235.118729,247.061478 234.772430,246.476151 
z"/>
<path fill="#2F2F30" opacity="1.000000" stroke="none" 
	d="
M206.433777,273.444275 
	C207.457474,271.480957 208.558090,269.952484 209.366760,268.282593 
	C210.657822,265.616638 212.140656,265.446991 214.300079,267.890259 
	C212.062912,270.675018 209.571991,273.174011 206.774521,275.866486 
	C206.438553,275.311859 206.409119,274.563721 206.433777,273.444275 
z"/>
<path fill="#26A6F6" opacity="1.000000" stroke="none" 
	d="
M285.580688,205.006409 
	C284.483368,206.580200 283.055939,208.218140 281.282440,209.882263 
	C282.374420,208.295822 283.812500,206.683182 285.580688,205.006409 
z"/>
<path fill="#26A6F6" opacity="1.000000" stroke="none" 
	d="
M262.671997,227.054413 
	C261.901733,228.310089 260.791626,229.610321 259.343475,230.959198 
	C260.114349,229.704895 261.223267,228.401947 262.671997,227.054413 
z"/>
<path fill="#027298" opacity="1.000000" stroke="none" 
	d="
M301.455170,161.095947 
	C301.820221,161.436310 302.088684,162.062164 302.172913,162.843445 
	C301.778595,162.459747 301.568604,161.920593 301.455170,161.095947 
z"/>
<path fill="#019FD7" opacity="1.000000" stroke="none" 
	d="
M265.265198,120.229767 
	C270.671997,118.903572 275.171600,121.602188 279.736389,124.829758 
	C275.083740,123.602524 270.304688,122.044006 265.265198,120.229767 
z"/>
<path fill="#019FD7" opacity="1.000000" stroke="none" 
	d="
M279.958923,125.500137 
	C280.786957,125.635658 281.717255,126.082130 282.758209,126.841949 
	C281.932983,126.707230 280.997070,126.259163 279.958923,125.500137 
z"/>
<path fill="#0062E5" opacity="1.000000" stroke="none" 
	d="
M211.884277,332.611053 
	C210.367325,334.133728 208.497086,335.237579 206.998993,336.718048 
	C196.016617,347.571014 185.161789,358.553253 174.161118,369.387482 
	C164.956940,378.452362 151.342285,380.302002 143.087357,373.352325 
	C139.596481,370.413422 136.892288,366.540100 133.517731,362.981476 
	C133.295380,360.452850 133.385818,358.034241 134.073486,355.355377 
	C137.343063,356.141998 139.680862,356.361969 141.690735,353.579468 
	C145.542114,348.247528 150.771805,345.713074 157.494919,345.945831 
	C164.632019,346.192902 171.821548,345.534882 178.921936,346.101776 
	C192.250397,347.165924 201.141785,340.100281 209.074326,330.840240 
	C209.950653,331.349030 210.826965,331.857819 211.884277,332.611053 
z"/>
<path fill="#026EED" opacity="1.000000" stroke="none" 
	d="
M208.895950,330.582092 
	C201.141785,340.100281 192.250397,347.165924 178.921936,346.101776 
	C171.821548,345.534882 164.632019,346.192902 157.494919,345.945831 
	C150.771805,345.713074 145.542114,348.247528 141.690735,353.579468 
	C139.680862,356.361969 137.343063,356.141998 134.295349,355.030823 
	C133.886871,354.560547 133.853745,354.154602 133.765503,353.450043 
	C133.880341,352.856171 134.050293,352.560944 134.406723,352.095184 
	C137.399124,352.987213 139.438751,352.208618 141.597687,350.002777 
	C152.553711,338.808990 163.617447,327.716919 174.823929,316.774017 
	C178.478867,313.205048 182.678452,310.193817 186.995560,306.824524 
	C187.362167,306.721558 187.691055,306.859497 187.918884,307.243347 
	C189.054474,308.797699 189.962204,309.968201 190.869949,311.138672 
	C190.869949,311.138672 190.916458,311.065094 190.934021,311.418274 
	C194.648453,316.147980 198.345322,320.524536 202.042175,324.901062 
	C202.042175,324.901062 202.034454,324.972382 202.207199,325.225098 
	C202.884659,325.780396 203.389374,326.083008 203.894089,326.385590 
	C205.501907,327.698364 207.109741,329.011139 208.895950,330.582092 
z"/>
<path fill="#3884BE" opacity="1.000000" stroke="none" 
	d="
M380.939056,274.147949 
	C384.059998,275.974518 384.674591,277.844513 381.805908,280.743683 
	C372.097992,290.554779 362.740753,300.718170 352.878418,310.367676 
	C350.231445,312.957520 347.737213,317.539337 342.159393,314.901001 
	C342.612549,313.462097 343.390717,312.228729 344.619415,310.602814 
	C348.715515,306.476227 352.361115,302.742249 356.304749,298.859558 
	C362.170227,292.769684 367.737701,286.828522 373.609375,280.704315 
	C376.255402,278.396820 378.597229,276.272400 380.939056,274.147949 
z"/>
<path fill="#2F2F30" opacity="1.000000" stroke="none" 
	d="
M183.964005,259.996490 
	C183.814713,266.916534 183.665405,273.836548 183.368881,281.622314 
	C183.321777,285.341675 183.421906,288.195282 183.522034,291.048889 
	C183.607910,293.364716 183.693771,295.680573 183.586777,298.394653 
	C183.393906,298.792908 183.429245,298.824066 183.016602,298.840393 
	C179.736420,299.907410 176.868881,300.958069 174.003113,301.576141 
	C176.349579,288.378632 178.637421,275.602539 181.139542,262.868561 
	C181.355652,261.768646 182.988983,260.947235 183.964005,259.996490 
z"/>
<path fill="#2F2F30" opacity="1.000000" stroke="none" 
	d="
M356.006714,299.008270 
	C352.361115,302.742249 348.715515,306.476227 344.776031,310.319885 
	C346.411743,303.899933 348.341370,297.370331 350.354553,290.051514 
	C350.334778,286.509033 350.231476,283.755737 350.128174,281.002441 
	C350.273010,279.535919 350.417786,278.069427 351.072937,276.446777 
	C352.385376,277.591156 353.794098,278.852814 353.880463,280.199280 
	C354.192017,285.056976 353.918915,289.950684 354.179199,294.814056 
	C354.255524,296.240662 355.368713,297.611755 356.006714,299.008270 
z"/>
<path fill="#939394" opacity="1.000000" stroke="none" 
	d="
M246.054779,331.776733 
	C259.717987,333.557007 273.431122,333.750336 287.597473,331.518463 
	C286.317993,336.063385 281.805908,334.562561 279.010284,334.657166 
	C268.746918,335.004517 258.445496,334.304565 248.163925,333.868347 
	C247.452820,333.838196 246.787003,332.740326 246.054779,331.776733 
z"/>
<path fill="#939394" opacity="1.000000" stroke="none" 
	d="
M183.896881,291.096680 
	C183.421906,288.195282 183.321777,285.341675 183.412262,282.065857 
	C187.751266,289.183594 191.899658,296.723511 196.209808,304.575073 
	C193.513214,301.780029 190.625198,298.699921 187.810104,295.554535 
	C186.555038,294.152191 185.446701,292.618561 183.896881,291.096680 
z"/>
<path fill="#939394" opacity="1.000000" stroke="none" 
	d="
M211.161041,318.144531 
	C216.443893,320.504211 221.759048,323.216248 227.194000,326.229218 
	C220.460800,326.821350 215.820648,322.671997 211.161041,318.144531 
z"/>
<path fill="#939394" opacity="1.000000" stroke="none" 
	d="
M201.968597,324.566589 
	C198.345322,320.524536 194.648453,316.147980 190.890686,311.422272 
	C194.518188,315.459442 198.206589,319.845764 201.968597,324.566589 
z"/>
<path fill="#939394" opacity="1.000000" stroke="none" 
	d="
M349.844971,281.236420 
	C350.231476,283.755737 350.334778,286.509033 350.306915,289.623199 
	C348.878967,290.928741 347.582184,291.873383 345.920593,292.848328 
	C346.891144,289.075897 348.226440,285.273132 349.844971,281.236420 
z"/>
<path fill="#939394" opacity="1.000000" stroke="none" 
	d="
M202.137009,311.174011 
	C205.022171,312.972687 207.922699,315.131073 210.993805,317.578125 
	C208.160385,315.755768 205.156372,313.644714 202.137009,311.174011 
z"/>
<path fill="#939394" opacity="1.000000" stroke="none" 
	d="
M290.088989,331.320801 
	C291.710846,330.556000 293.422546,330.121338 295.509399,329.637207 
	C294.834595,332.631470 293.095245,333.768616 290.088989,331.320801 
z"/>
<path fill="#939394" opacity="1.000000" stroke="none" 
	d="
M198.068024,307.171692 
	C199.344147,307.951324 200.614197,309.121552 202.024399,310.583130 
	C200.797012,309.770447 199.429474,308.666351 198.068024,307.171692 
z"/>
<path fill="#939394" opacity="1.000000" stroke="none" 
	d="
M227.339996,326.948303 
	C229.075623,327.153809 230.966614,327.711243 233.065277,328.588501 
	C231.347061,328.372314 229.421219,327.836273 227.339996,326.948303 
z"/>
<path fill="#939394" opacity="1.000000" stroke="none" 
	d="
M190.893829,310.770996 
	C189.962204,309.968201 189.054474,308.797699 188.084290,307.309998 
	C188.987152,308.129639 189.952423,309.266510 190.893829,310.770996 
z"/>
<path fill="#939394" opacity="1.000000" stroke="none" 
	d="
M241.150085,330.783081 
	C241.856003,330.551178 242.580521,330.671509 243.650391,330.917175 
	C243.123627,333.211884 242.191956,333.568573 241.150085,330.783081 
z"/>
<path fill="#939394" opacity="1.000000" stroke="none" 
	d="
M234.051010,329.244324 
	C234.595230,329.048950 235.193893,329.134613 235.958649,329.490631 
	C235.451660,329.682465 234.778549,329.603943 234.051010,329.244324 
z"/>
<path fill="#939394" opacity="1.000000" stroke="none" 
	d="
M203.769516,326.107239 
	C203.389374,326.083008 202.884659,325.780396 202.241974,325.216309 
	C202.617661,325.246155 203.131302,325.537537 203.769516,326.107239 
z"/>
<path fill="#939394" opacity="1.000000" stroke="none" 
	d="
M309.039703,325.229401 
	C309.001007,325.012390 309.407806,324.739105 309.644073,324.673706 
	C309.816223,325.036621 309.752106,325.464905 309.687988,325.893219 
	C309.484802,325.744263 309.281586,325.595337 309.039703,325.229401 
z"/>
<path fill="#939394" opacity="1.000000" stroke="none" 
	d="
M344.489624,297.481628 
	C344.515411,297.470367 344.463806,297.492889 344.489624,297.481628 
z"/>
<path fill="#939394" opacity="1.000000" stroke="none" 
	d="
M306.481781,327.510132 
	C306.470551,327.484314 306.493011,327.535919 306.481781,327.510132 
z"/>
<path fill="#939394" opacity="1.000000" stroke="none" 
	d="
M302.954132,327.683716 
	C302.978851,327.427490 303.133606,327.351562 303.546021,327.258850 
	C303.563843,327.449371 303.324036,327.656677 302.954132,327.683716 
z"/>
<path fill="#191919" opacity="1.000000" stroke="none" 
	d="
M381.054596,273.880981 
	C378.597229,276.272400 376.255402,278.396820 373.465973,280.321136 
	C368.854675,275.855499 364.869720,271.393646 360.469055,267.388489 
	C357.130035,264.349579 353.261658,261.892242 349.628845,259.176117 
	C346.585938,250.270416 342.088135,242.231094 335.271240,234.858856 
	C335.142181,233.611633 335.236084,232.945557 335.653076,232.152588 
	C338.514832,229.971924 340.129761,231.686356 341.868774,233.370911 
	C352.443878,243.614868 363.039154,253.838104 373.664276,264.030151 
	C375.919281,266.193207 378.325684,268.198334 380.869568,270.514069 
	C381.407318,271.011505 381.737793,271.271118 382.068298,271.530762 
	C381.768921,272.225189 381.469513,272.919617 381.054596,273.880981 
z"/>
<path fill="#005C9B" opacity="1.000000" stroke="none" 
	d="
M396.731812,241.424438 
	C396.250397,243.234436 395.645416,244.745560 395.046082,246.625977 
	C391.147888,250.770096 387.244049,254.544891 382.897736,258.482971 
	C381.965546,258.096558 381.475830,257.546844 381.159119,256.710052 
	C385.005432,251.898575 391.560883,249.783798 392.984497,242.712692 
	C387.670074,246.690765 382.781036,250.350388 377.473328,254.016663 
	C373.904297,253.003082 370.158966,252.729797 367.734283,250.798523 
	C363.422882,247.364532 359.911377,242.926254 356.024933,238.535034 
	C355.843964,237.170609 355.703369,236.179245 355.562805,235.187866 
	C358.018982,236.638733 360.983093,237.616516 362.847565,239.618454 
	C373.650818,251.218201 377.378815,250.879623 388.180664,239.634567 
	C397.163025,230.283676 406.730957,221.492157 416.135529,212.553864 
	C417.390778,211.360840 419.210724,210.761932 421.098785,209.818207 
	C420.183960,212.127014 419.386597,214.926651 417.614441,216.808044 
	C411.370728,223.436478 404.714417,229.675003 398.415161,236.253525 
	C397.315826,237.401596 397.185883,239.477921 396.731812,241.424438 
z"/>
<path fill="#7E7C7D" opacity="1.000000" stroke="none" 
	d="
M380.986115,256.997162 
	C381.475830,257.546844 381.965546,258.096558 382.709167,258.754639 
	C384.822052,260.885895 386.681000,262.908783 389.017700,265.451599 
	C386.921631,267.407532 384.834869,269.354797 382.408203,271.416412 
	C381.737793,271.271118 381.407318,271.011505 380.957397,270.119202 
	C379.696533,267.307709 378.878662,264.861603 377.345947,263.005890 
	C374.195587,259.191681 374.278870,258.235535 379.121002,256.323608 
	C379.869232,256.695709 380.427673,256.846436 380.986115,256.997162 
z"/>
<path fill="#05457A" opacity="1.000000" stroke="none" 
	d="
M241.853241,308.904877 
	C241.275665,308.836029 240.698090,308.767181 240.125946,308.177765 
	C241.489334,306.198303 242.786255,304.676544 244.214417,303.290009 
	C266.125946,282.016449 288.075317,260.781799 309.966461,239.487320 
	C316.405090,233.224197 322.682190,226.795212 329.047394,220.456375 
	C335.836731,213.695206 342.263824,212.848267 350.560913,217.708755 
	C353.390869,219.366547 356.098511,221.233139 358.862030,223.004318 
	C358.479431,224.249252 358.096863,225.494171 357.116089,226.776840 
	C352.316162,224.676956 349.411102,219.569489 343.358429,221.105133 
	C342.860992,220.911560 342.576691,220.797150 342.095886,220.430725 
	C340.667084,219.132584 339.427124,218.105576 337.685638,216.663162 
	C333.174286,221.598450 328.940216,226.230377 324.444611,231.045532 
	C321.765961,233.765854 319.348877,236.302963 316.636353,239.002518 
	C311.672028,243.907776 306.898804,248.553360 302.364044,253.421143 
	C297.973785,258.133728 293.828918,263.074890 289.267365,268.008118 
	C283.947113,273.338196 278.935760,278.575806 273.702148,283.752991 
	C273.479889,283.692505 273.057861,283.507660 272.891022,283.263184 
	C269.191986,280.690186 267.477753,281.616150 263.615173,287.829407 
	C260.142944,290.852814 257.011871,293.801514 253.590866,296.934204 
	C250.828171,299.990021 248.355362,302.861786 245.843323,305.776459 
	C245.804077,305.819366 245.873947,305.912292 245.561249,305.852570 
	C244.740707,306.150269 244.232880,306.507690 243.493713,307.020966 
	C242.792664,307.752838 242.322952,308.328857 241.853241,308.904877 
z"/>
<path fill="#005C9B" opacity="1.000000" stroke="none" 
	d="
M359.123657,222.782990 
	C356.098511,221.233139 353.390869,219.366547 350.560913,217.708755 
	C342.263824,212.848267 335.836731,213.695206 329.047394,220.456375 
	C322.682190,226.795212 316.405090,233.224197 309.966461,239.487320 
	C288.075317,260.781799 266.125946,282.016449 244.214417,303.290009 
	C242.786255,304.676544 241.489334,306.198303 239.931183,307.951569 
	C238.894485,307.973511 238.057922,307.701080 237.285797,307.013428 
	C247.764221,296.356140 258.216431,286.152618 268.582886,275.862701 
	C282.856781,261.694214 297.077972,247.472473 311.288788,233.240631 
	C313.270569,231.255890 315.064819,229.083878 316.945892,226.998566 
	C320.201141,223.856659 323.456360,220.714752 327.207611,217.237244 
	C329.174469,215.311691 330.645355,213.721741 332.116211,212.131775 
	C332.531189,212.067398 332.946136,212.003036 333.970459,211.873810 
	C335.119507,211.276352 335.659241,210.743729 336.198975,210.211090 
	C336.603546,210.203568 337.008148,210.196030 337.996216,210.373169 
	C340.381165,210.417175 342.182556,210.276520 343.983978,210.135880 
	C344.673431,210.183685 345.362854,210.231506 346.505554,210.515503 
	C347.638947,210.929596 348.319061,211.107513 348.999176,211.285431 
	C348.999176,211.285431 349.457703,211.392441 349.686829,211.449860 
	C351.651154,212.700531 353.386383,213.893784 355.548065,215.418564 
	C356.669708,216.428955 357.364899,217.107834 358.060059,217.786697 
	C358.501831,219.378357 358.943573,220.970016 359.123657,222.782990 
z"/>
<path fill="#7E7C7D" opacity="1.000000" stroke="none" 
	d="
M324.706177,230.862305 
	C328.940216,226.230377 333.174286,221.598450 337.685638,216.663162 
	C339.427124,218.105576 340.667084,219.132584 341.755005,220.621460 
	C339.837097,221.863190 338.071259,222.643066 336.764832,223.220032 
	C340.811707,226.205063 344.300568,229.075775 348.111145,231.424652 
	C349.408539,232.224350 351.515564,231.710495 353.544556,231.827637 
	C354.219635,231.938248 354.602844,232.018112 354.986053,232.097961 
	C355.107697,232.931458 355.229309,233.764954 355.456879,234.893158 
	C355.703369,236.179245 355.843964,237.170609 355.637390,238.550385 
	C353.080902,237.968887 350.627594,237.333969 348.722565,235.946381 
	C346.204529,234.112274 344.279053,231.476669 341.802582,229.570557 
	C338.507446,227.034317 336.591095,227.954056 335.329987,232.279465 
	C335.236084,232.945557 335.142181,233.611633 335.041443,234.617676 
	C334.572266,234.879456 334.109955,234.801254 333.150665,234.451416 
	C331.565399,229.334686 327.981506,230.468018 324.706177,230.862305 
z"/>
<path fill="#005C9B" opacity="1.000000" stroke="none" 
	d="
M355.129028,231.787628 
	C354.602844,232.018112 354.219635,231.938248 353.451416,231.497803 
	C349.904022,227.813202 346.741638,224.489182 343.579285,221.165161 
	C349.411102,219.569489 352.316162,224.676956 356.836395,226.980896 
	C356.527252,228.590576 355.899628,230.033920 355.129028,231.787628 
z"/>
<path fill="#027DE5" opacity="1.000000" stroke="none" 
	d="
M358.028931,217.457153 
	C357.364899,217.107834 356.669708,216.428955 355.887817,215.457733 
	C356.533356,215.819458 357.265594,216.473541 358.028931,217.457153 
z"/>
<path fill="#C0181E" opacity="1.000000" stroke="none" 
	d="
M169.908157,300.033020 
	C166.750351,299.179565 165.825348,297.297546 166.465576,294.024200 
	C170.068298,275.604370 173.498978,257.150909 177.021530,238.715302 
	C177.521530,236.098557 178.068939,233.381760 182.021622,234.503601 
	C182.183167,235.854706 182.130402,236.648468 181.959137,237.871567 
	C180.870407,244.208466 179.900162,250.116013 178.780106,256.376892 
	C175.722931,271.164520 172.815536,285.598755 169.908157,300.033020 
z"/>
<path fill="#222324" opacity="1.000000" stroke="none" 
	d="
M169.920364,300.437988 
	C172.815536,285.598755 175.722931,271.164520 179.155853,256.356873 
	C181.762909,255.320724 183.844421,254.657990 185.925949,253.995270 
	C185.419647,255.810822 184.913345,257.626373 184.185516,259.719208 
	C182.988983,260.947235 181.355652,261.768646 181.139542,262.868561 
	C178.637421,275.602539 176.349579,288.378632 173.724182,301.797180 
	C172.102325,302.981537 170.761169,303.512238 169.420013,304.042908 
	C169.590866,302.976257 169.761719,301.909576 169.920364,300.437988 
z"/>
<path fill="#999798" opacity="1.000000" stroke="none" 
	d="
M169.263885,304.368835 
	C170.761169,303.512238 172.102325,302.981537 173.722412,302.229797 
	C176.868881,300.958069 179.736420,299.907410 183.025772,298.861877 
	C178.411911,303.810974 173.376221,308.754974 167.993713,313.751709 
	C168.133865,310.767883 168.620819,307.731293 169.263885,304.368835 
z"/>
<path fill="#676667" opacity="1.000000" stroke="none" 
	d="
M182.077637,237.442215 
	C182.130402,236.648468 182.183167,235.854706 182.214661,234.770416 
	C182.193375,234.479889 182.566910,234.171860 182.764984,234.031204 
	C191.103287,236.497879 192.805191,238.812164 191.099548,245.495270 
	C190.955917,245.840454 190.555435,246.046539 190.265259,245.742065 
	C187.342590,242.772461 184.710114,240.107330 182.077637,237.442215 
z"/>
<path fill="#027DE5" opacity="1.000000" stroke="none" 
	d="
M331.782043,212.128067 
	C330.645355,213.721741 329.174469,215.311691 327.369293,216.944397 
	C327.267487,216.186905 327.500031,215.386688 327.859009,214.296692 
	C329.139587,213.379379 330.293732,212.751862 331.782043,212.128067 
z"/>
<path fill="#027DE5" opacity="1.000000" stroke="none" 
	d="
M343.729706,209.868607 
	C342.182556,210.276520 340.381165,210.417175 338.298828,210.348312 
	C339.837067,209.959641 341.656250,209.780487 343.729706,209.868607 
z"/>
<path fill="#027DE5" opacity="1.000000" stroke="none" 
	d="
M348.819550,210.996918 
	C348.319061,211.107513 347.638947,210.929596 346.851257,210.517334 
	C347.375793,210.424805 348.007843,210.566605 348.819550,210.996918 
z"/>
<path fill="#027DE5" opacity="1.000000" stroke="none" 
	d="
M335.883972,210.195038 
	C335.659241,210.743729 335.119507,211.276352 334.277069,211.800842 
	C334.505859,211.254791 335.037384,210.716888 335.883972,210.195038 
z"/>
<path fill="#027DE5" opacity="1.000000" stroke="none" 
	d="
M316.588684,227.005096 
	C315.064819,229.083878 313.270569,231.255890 311.288788,233.240631 
	C297.077972,247.472473 282.856781,261.694214 268.582886,275.862701 
	C258.216431,286.152618 247.764221,296.356140 237.051895,306.768433 
	C226.098648,302.590973 216.573242,296.818207 210.680206,286.037445 
	C212.771149,284.821320 214.927979,283.214447 217.142059,283.131256 
	C225.447861,282.819214 233.844666,282.315063 242.071625,283.177582 
	C252.442825,284.264893 260.038177,279.602631 267.109283,273.284973 
	C271.191528,269.637665 274.836304,265.500671 278.841034,261.294678 
	C285.561188,254.865189 292.118256,248.725082 298.836731,242.295105 
	C303.135254,238.038712 307.212250,234.006348 311.443665,230.143112 
	C312.833832,228.873901 314.624146,228.042969 316.588684,227.005096 
z"/>
<path fill="#0467B3" opacity="1.000000" stroke="none" 
	d="
M273.924408,283.813446 
	C278.935760,278.575806 283.947113,273.338196 289.568848,268.201019 
	C292.259918,269.962463 294.340607,271.623474 296.514954,273.603943 
	C296.754669,274.343384 296.900726,274.763336 296.795471,275.424683 
	C292.615601,280.004364 296.831818,281.942169 299.143433,284.413422 
	C303.454071,289.021729 307.792999,293.603546 312.120178,298.196381 
	C307.144623,301.041809 302.169067,303.887207 296.742065,306.359009 
	C288.835205,298.594727 281.379791,291.204071 273.924408,283.813446 
z"/>
<path fill="#343434" opacity="1.000000" stroke="none" 
	d="
M349.610840,259.607880 
	C353.261658,261.892242 357.130035,264.349579 360.469055,267.388489 
	C364.869720,271.393646 368.854675,275.855499 373.161804,280.504181 
	C367.737701,286.828522 362.170227,292.769684 356.304718,298.859558 
	C355.368713,297.611755 354.255524,296.240662 354.179199,294.814056 
	C353.918915,289.950684 354.192017,285.056976 353.880463,280.199280 
	C353.794098,278.852814 352.385376,277.591156 351.237457,276.120636 
	C350.458710,270.646973 350.025787,265.343323 349.610840,259.607880 
z"/>
<path fill="#191919" opacity="1.000000" stroke="none" 
	d="
M242.212189,309.090942 
	C242.322952,308.328857 242.792664,307.752838 243.809448,307.020447 
	C244.862305,306.546814 245.368118,306.229553 245.873932,305.912292 
	C245.873947,305.912292 245.804077,305.819366 246.217773,305.799255 
	C249.432877,304.486969 252.234283,303.194763 255.326797,301.696533 
	C260.522125,299.169983 265.426361,296.849487 270.629120,294.690552 
	C275.947662,299.895630 280.967621,304.939087 285.987579,309.982574 
	C271.447510,313.927826 256.994690,312.503418 242.212189,309.090942 
z"/>
<path fill="#7E7C7D" opacity="1.000000" stroke="none" 
	d="
M296.421326,273.284485 
	C294.340607,271.623474 292.259918,269.962463 289.877747,268.108551 
	C293.828918,263.074890 297.973785,258.133728 302.364044,253.421143 
	C306.898804,248.553360 311.672028,243.907776 316.646301,239.376770 
	C314.114319,243.424683 311.276978,247.260803 308.325226,251.251617 
	C316.029968,251.529083 316.011841,251.550537 323.012543,257.464478 
	C323.848602,258.170746 325.011871,258.489685 326.023499,258.988159 
	C326.498199,264.086548 326.972931,269.184967 327.033997,274.383942 
	C323.287933,269.015961 320.069183,263.473480 316.578796,258.107697 
	C314.614716,255.088318 312.441498,255.681503 310.200287,258.226135 
	C305.704193,263.330933 301.024963,268.274414 296.421326,273.284485 
z"/>
<path fill="#191919" opacity="1.000000" stroke="none" 
	d="
M296.514984,273.603973 
	C301.024963,268.274414 305.704193,263.330933 310.200287,258.226135 
	C312.441498,255.681503 314.614716,255.088318 316.578796,258.107697 
	C320.069183,263.473480 323.287933,269.015961 326.862122,274.749817 
	C326.434967,276.769226 325.766052,278.523346 324.672882,280.574738 
	C322.886322,279.503510 321.424469,278.219421 320.180115,276.751007 
	C316.248962,272.111938 311.749298,271.766846 307.544922,275.987274 
	C306.159485,277.378021 305.001556,278.995392 303.434448,280.347321 
	C301.101807,278.518097 299.074280,276.850677 297.046783,275.183289 
	C296.900726,274.763336 296.754669,274.343384 296.514984,273.603973 
z"/>
<path fill="#999798" opacity="1.000000" stroke="none" 
	d="
M326.035004,258.619537 
	C325.011871,258.489685 323.848602,258.170746 323.012543,257.464478 
	C316.011841,251.550537 316.029968,251.529083 308.325226,251.251617 
	C311.276978,247.260803 314.114319,243.424683 316.941742,239.214325 
	C319.348877,236.302963 321.765961,233.765854 324.444580,231.045517 
	C327.981506,230.468018 331.565399,229.334686 332.800293,234.482849 
	C329.836700,238.184509 326.903015,241.770691 323.556854,244.918350 
	C321.166321,247.167099 320.929596,248.933716 322.842072,251.592865 
	C324.258209,253.561920 325.002808,256.014008 326.035004,258.619537 
z"/>
<path fill="#939394" opacity="1.000000" stroke="none" 
	d="
M273.702148,283.752991 
	C281.379791,291.204071 288.835205,298.594727 296.408661,306.311615 
	C293.593781,307.739380 290.660828,308.840881 287.338318,309.515778 
	C286.749329,307.133728 287.293945,304.452118 286.219208,303.350891 
	C281.979889,299.007141 277.316650,295.054352 272.575592,291.249451 
	C271.917358,290.721191 269.944519,291.830963 268.369568,292.066742 
	C267.800873,291.614288 267.442841,291.277527 267.111389,290.601196 
	C269.111267,288.010254 271.084564,285.758972 273.057861,283.507660 
	C273.057861,283.507660 273.479889,283.692505 273.702148,283.752991 
z"/>
<path fill="#343434" opacity="1.000000" stroke="none" 
	d="
M323.152344,285.064453 
	C321.322968,287.730957 319.493591,290.397461 317.064209,293.044922 
	C312.340973,289.007629 308.217743,284.989349 304.452637,280.959106 
	C306.073425,280.265778 307.475281,279.757385 308.574707,278.873047 
	C313.280273,275.087982 314.912476,275.247894 318.631439,279.930786 
	C320.047638,281.714081 321.640198,283.357361 323.152344,285.064453 
z"/>
<path fill="#3884BE" opacity="1.000000" stroke="none" 
	d="
M304.094513,280.971069 
	C308.217743,284.989349 312.340973,289.007629 316.757751,293.215576 
	C315.622345,294.949097 314.193390,296.492859 312.442322,298.116516 
	C307.792999,293.603546 303.454071,289.021729 299.143433,284.413422 
	C296.831818,281.942169 292.615601,280.004364 296.795471,275.424683 
	C299.074280,276.850677 301.101807,278.518097 303.486816,280.490387 
	C303.844299,280.795288 304.094513,280.971069 304.094513,280.971069 
z"/>
<path fill="#191919" opacity="1.000000" stroke="none" 
	d="
M181.959137,237.871567 
	C184.710114,240.107330 187.342590,242.772461 190.045074,245.789337 
	C188.858932,248.573822 187.602814,251.006561 186.136322,253.717285 
	C183.844421,254.657990 181.762909,255.320724 179.305649,256.003510 
	C179.900162,250.116013 180.870407,244.208466 181.959137,237.871567 
z"/>
<path fill="#676667" opacity="1.000000" stroke="none" 
	d="
M268.580261,292.182465 
	C269.944519,291.830963 271.917358,290.721191 272.575592,291.249451 
	C277.316650,295.054352 281.979889,299.007141 286.219208,303.350891 
	C287.293945,304.452118 286.749329,307.133728 286.956665,309.506989 
	C286.804565,309.982513 286.644592,310.040253 286.236084,310.040283 
	C280.967621,304.939087 275.947662,299.895630 270.447083,294.468994 
	C269.504425,293.451355 269.042328,292.816895 268.580261,292.182465 
z"/>
<path fill="#222324" opacity="1.000000" stroke="none" 
	d="
M304.452637,280.959106 
	C304.094513,280.971069 303.844299,280.795288 303.791962,280.652222 
	C305.001556,278.995392 306.159485,277.378021 307.544922,275.987274 
	C311.749298,271.766846 316.248962,272.111938 320.180115,276.751007 
	C321.424469,278.219421 322.886322,279.503510 324.584045,280.933624 
	C324.502808,282.214996 324.086151,283.434723 323.410950,284.859436 
	C321.640198,283.357361 320.047638,281.714081 318.631439,279.930786 
	C314.912476,275.247894 313.280273,275.087982 308.574707,278.873047 
	C307.475281,279.757385 306.073425,280.265778 304.452637,280.959106 
z"/>
<path fill="#525152" opacity="1.000000" stroke="none" 
	d="
M335.653076,232.152588 
	C336.591095,227.954056 338.507446,227.034317 341.802582,229.570557 
	C344.279053,231.476669 346.204529,234.112274 348.722565,235.946381 
	C350.627594,237.333969 353.080902,237.968887 355.677734,238.923431 
	C359.911377,242.926254 363.422882,247.364532 367.734283,250.798523 
	C370.158966,252.729797 373.904297,253.003082 377.620239,254.272263 
	C378.434296,255.048218 378.682770,255.575226 378.931213,256.102234 
	C374.278870,258.235535 374.195587,259.191681 377.345947,263.005890 
	C378.878662,264.861603 379.696533,267.307709 380.750183,269.881409 
	C378.325684,268.198334 375.919281,266.193207 373.664276,264.030151 
	C363.039154,253.838104 352.443878,243.614868 341.868774,233.370911 
	C340.129761,231.686356 338.514832,229.971924 335.653076,232.152588 
z"/>
<path fill="#05457A" opacity="1.000000" stroke="none" 
	d="
M379.121002,256.323608 
	C378.682770,255.575226 378.434296,255.048218 378.038910,254.265625 
	C382.781036,250.350388 387.670074,246.690765 392.984497,242.712692 
	C391.560883,249.783798 385.005432,251.898575 381.159119,256.710052 
	C380.427673,256.846436 379.869232,256.695709 379.121002,256.323608 
z"/>
<path fill="#C0181E" opacity="1.000000" stroke="none" 
	d="
M268.369568,292.066742 
	C269.042328,292.816895 269.504425,293.451355 270.148529,294.307373 
	C265.426361,296.849487 260.522125,299.169983 255.275879,301.330444 
	C254.582809,299.697021 254.231781,298.223633 253.880768,296.750214 
	C257.011871,293.801514 260.142944,290.852814 263.745300,288.130432 
	C265.172607,289.218079 266.128723,290.079437 267.084808,290.940796 
	C267.442841,291.277527 267.800873,291.614288 268.369568,292.066742 
z"/>
<path fill="#939394" opacity="1.000000" stroke="none" 
	d="
M343.358429,221.105133 
	C346.741638,224.489182 349.904022,227.813202 353.159515,231.467041 
	C351.515564,231.710495 349.408539,232.224350 348.111145,231.424652 
	C344.300568,229.075775 340.811707,226.205063 336.764832,223.220032 
	C338.071259,222.643066 339.837097,221.863190 341.943848,220.892593 
	C342.576691,220.797150 342.860992,220.911560 343.358429,221.105133 
z"/>
<path fill="#676667" opacity="1.000000" stroke="none" 
	d="
M267.111389,290.601196 
	C266.128723,290.079437 265.172607,289.218079 264.086426,288.055725 
	C267.477753,281.616150 269.191986,280.690186 272.891022,283.263184 
	C271.084564,285.758972 269.111267,288.010254 267.111389,290.601196 
z"/>
<path fill="#222324" opacity="1.000000" stroke="none" 
	d="
M253.590866,296.934204 
	C254.231781,298.223633 254.582809,299.697021 254.984772,301.536499 
	C252.234283,303.194763 249.432877,304.486969 246.257019,305.756348 
	C248.355362,302.861786 250.828171,299.990021 253.590866,296.934204 
z"/>
<path fill="#222324" opacity="1.000000" stroke="none" 
	d="
M245.561234,305.852539 
	C245.368118,306.229553 244.862305,306.546814 244.040771,306.864594 
	C244.232880,306.507690 244.740707,306.150269 245.561234,305.852539 
z"/>
</svg>